<svg width="585" height="518" viewBox="0 0 585 518" fill="none" xmlns="http://www.w3.org/2000/svg">
<path d="M195.509 517.083C176.561 517.083 161.886 510.489 151.483 497.299C141.081 484.11 137.18 468.042 139.78 449.094L163.186 281.906C166.53 259.615 176.469 241.224 193.002 226.734C209.535 212.245 228.947 205 251.239 205H471.926C494.218 205 513.63 212.245 530.163 226.734C546.696 241.224 556.634 259.615 559.978 281.906L583.384 449.094C585.985 468.042 582.084 484.11 571.681 497.299C561.279 510.489 546.603 517.083 527.655 517.083C519.853 517.083 512.608 515.69 505.921 512.904C499.233 510.117 493.103 505.938 487.53 500.365L437.374 450.208H285.791L235.634 500.365C230.061 505.938 223.931 510.117 217.244 512.904C210.556 515.69 203.311 517.083 195.509 517.083ZM204.426 469.156L267.957 405.625H455.207L518.739 469.156C519.482 469.899 522.454 471.014 527.655 472.5C531.742 472.5 534.993 471.293 537.408 468.878C539.823 466.463 540.659 463.212 539.916 459.125L515.395 287.479C513.909 276.705 509.079 267.695 500.905 260.451C492.732 253.206 483.072 249.583 471.926 249.583H251.239C240.093 249.583 230.433 253.206 222.259 260.451C214.086 267.695 209.256 276.705 207.77 287.479L183.249 459.125C182.506 463.212 183.342 466.463 185.757 468.878C188.172 471.293 191.423 472.5 195.509 472.5C196.252 472.5 199.225 471.385 204.426 469.156ZM473.041 383.333C479.357 383.333 484.651 381.197 488.923 376.924C493.196 372.652 495.332 367.358 495.332 361.042C495.332 354.726 493.196 349.431 488.923 345.159C484.651 340.886 479.357 338.75 473.041 338.75C466.725 338.75 461.43 340.886 457.158 345.159C452.885 349.431 450.749 354.726 450.749 361.042C450.749 367.358 452.885 372.652 457.158 376.924C461.43 381.197 466.725 383.333 473.041 383.333ZM428.457 316.458C434.773 316.458 440.068 314.322 444.34 310.049C448.613 305.777 450.749 300.483 450.749 294.167C450.749 287.851 448.613 282.556 444.34 278.284C440.068 274.011 434.773 271.875 428.457 271.875C422.141 271.875 416.847 274.011 412.574 278.284C408.302 282.556 406.166 287.851 406.166 294.167C406.166 300.483 408.302 305.777 412.574 310.049C416.847 314.322 422.141 316.458 428.457 316.458ZM266.843 383.333H300.28V344.323H339.291V310.885H300.28V271.875H266.843V310.885H227.832V344.323H266.843V383.333Z" fill="#5F6368"/>
<rect x="268.84" y="62.0078" width="35.4053" height="142.018" transform="rotate(-17.1716 268.84 62.0078)" fill="#5F6368"/>
<rect x="42" y="180.338" width="35.4053" height="142.719" transform="rotate(-35.0604 42 180.338)" fill="#5F6368"/>
<rect x="140.719" y="79.5703" width="35.4053" height="123.739" transform="rotate(-60.8976 140.719 79.5703)" fill="#5F6368"/>
<rect x="248.16" y="138.891" width="35.4053" height="93.4512" transform="rotate(-141.077 248.16 138.891)" fill="#5F6368"/>
<rect x="143.018" y="189.587" width="35.4053" height="138.684" transform="rotate(-170.323 143.018 189.587)" fill="#5F6368"/>
<rect x="141.654" y="154.16" width="35.4053" height="92.2452" transform="rotate(87.7798 141.654 154.16)" fill="#5F6368"/>
<rect x="124.006" y="297.113" width="35.7727" height="246.371" transform="rotate(-116.484 124.006 297.113)" fill="#5F6368"/>
<circle cx="294.5" cy="28.5" r="28.5" fill="#5F6368"/>
<circle cx="133.5" cy="38.5" r="28.5" fill="#5F6368"/>
<circle cx="28.5" cy="157.5" r="28.5" fill="#5F6368"/>
</svg>
