<svg width="1701" height="1562" viewBox="0 0 1701 1562" fill="none" xmlns="http://www.w3.org/2000/svg">
<path d="M614.497 722.5L614.125 722.502L614.02 722.859L529.52 1011.36L529.498 1011.44L529.5 1011.52L540 1356.52L540.024 1357.29L540.719 1356.95L985.515 1140.05L1477.3 1348.46L1477.96 1348.74L1478 1348.03L1496 1057.03L1496 1056.95L1495.98 1056.86L1398.98 717.862L1398.88 717.498L1398.5 717.5L614.497 722.5Z" fill="white" stroke="black"/>
<path d="M798.478 335.353L798.196 334.435L797.606 335.193L716.365 439.36L485.236 315.559L484.63 315.235L484.508 315.911L439.077 567.53L306.463 577.501L305.578 577.568L306.093 578.29L422.593 741.79L422.84 742.137L423.222 741.948L642.222 633.448L857.222 526.948L857.607 526.757L857.476 526.348L846.478 491.853L846.476 491.848L798.478 335.353Z" fill="white" stroke="black"/>
<path d="M435.668 1242.18L435.668 1242.19C428.969 1291 439.015 1332.44 465.841 1366.46C492.679 1400.5 530.541 1417.5 579.358 1417.5C599.466 1417.5 618.148 1413.91 635.396 1406.72C652.645 1399.53 668.45 1388.75 682.812 1374.38L811.541 1245.62H1200.62L1329.35 1374.38C1343.71 1388.75 1359.51 1399.53 1376.76 1406.72C1394.01 1413.91 1412.69 1417.5 1432.8 1417.5C1481.62 1417.5 1519.48 1400.5 1546.32 1366.46C1573.14 1332.44 1583.19 1291 1576.49 1242.19L1576.49 1242.18L1516.35 812.482L1516.35 812.477C1507.74 755.069 1482.15 707.694 1439.57 670.373C1397 633.051 1347 614.388 1289.61 614.388H722.553C665.156 614.388 615.158 633.051 572.585 670.373C530.012 707.694 504.419 755.069 495.81 812.477L495.81 812.482L435.668 1242.18ZM765.512 1130.03H765.304L765.158 1130.18L601.984 1293.4C595.346 1296.24 590.133 1298.37 586.342 1299.8C584.438 1300.51 582.898 1301.04 581.72 1301.4C580.522 1301.76 579.752 1301.91 579.358 1301.91C568.962 1301.91 560.746 1298.84 554.652 1292.75C548.589 1286.68 546.46 1278.51 548.347 1268.13L548.349 1268.12L548.35 1268.11L611.356 826.945L611.356 826.943C615.158 799.37 627.51 776.322 648.423 757.78C669.332 739.242 694.034 729.975 722.553 729.975H1289.61C1318.13 729.975 1342.83 739.242 1363.74 757.78C1384.65 776.322 1397 799.37 1400.8 826.943L1400.8 826.945L1463.81 1268.11L1463.81 1268.12L1463.81 1268.13C1465.7 1278.51 1463.57 1286.68 1457.51 1292.75C1451.43 1298.83 1443.23 1301.9 1432.87 1301.91C1426.23 1300.01 1421.01 1298.35 1417.22 1296.93C1415.32 1296.22 1413.79 1295.57 1412.62 1294.98C1411.44 1294.39 1410.66 1293.88 1410.24 1293.46L1247 1130.18L1246.85 1130.03H1246.65H765.512ZM762.148 1073.24V1073.74H762.648H848.565H849.065V1073.24V973.473H948.801H949.301V972.973V887.033V886.533H948.801H849.065V786.769V786.269H848.565H762.648H762.148V786.769V886.533H662.411H661.911V887.033V972.973V973.473H662.411H762.148V1073.24ZM1292.47 1073.74C1308.82 1073.74 1322.56 1068.2 1333.63 1057.12C1344.71 1046.04 1350.25 1032.3 1350.25 1015.94C1350.25 999.585 1344.71 985.848 1333.63 974.768C1322.56 963.689 1308.82 958.15 1292.47 958.15C1276.11 958.15 1262.38 963.689 1251.31 974.768C1240.23 985.848 1234.69 999.585 1234.69 1015.94C1234.69 1032.3 1240.23 1046.04 1251.31 1057.12C1262.38 1068.2 1276.11 1073.74 1292.47 1073.74ZM1177.91 901.856C1194.27 901.856 1208 896.318 1219.08 885.238C1230.15 874.158 1235.69 860.422 1235.69 844.063C1235.69 827.703 1230.15 813.967 1219.08 802.887C1208 791.808 1194.27 786.269 1177.91 786.269C1161.56 786.269 1147.83 791.808 1136.75 802.887C1125.67 813.967 1120.14 827.703 1120.14 844.063C1120.14 860.422 1125.67 874.158 1136.75 885.238C1147.83 896.318 1161.56 901.856 1177.91 901.856Z" fill="#101010" stroke="black"/>
<rect x="-0.625281" y="-0.33007" width="91.9753" height="366.003" transform="matrix(0.955402 -0.295308 0.29516 0.955448 767.849 247.172)" fill="#101010" stroke="black"/>
<rect x="-0.696404" y="-0.122038" width="91.9814" height="367.782" transform="matrix(0.818473 -0.574544 0.574334 0.818621 184.862 551.081)" fill="#101010" stroke="black"/>
<rect x="-0.679983" y="0.193668" width="91.9922" height="318.966" transform="matrix(0.48627 -0.873809 0.873695 0.486473 438.056 292.016)" fill="#101010" stroke="black"/>
<rect x="0.0748685" y="0.703227" width="91.983" height="241.161" transform="matrix(-0.777908 -0.628379 0.62817 -0.778076 714.334 446.274)" fill="#101010" stroke="black"/>
<rect x="0.408856" y="0.57696" width="91.9739" height="357.442" transform="matrix(-0.985763 -0.168141 0.168052 -0.985778 445.195 576.488)" fill="#101010" stroke="black"/>
<rect x="0.48026" y="-0.519" width="91.998" height="238.022" transform="matrix(0.038729 0.99925 -0.999249 0.0387501 440.922 483.241)" fill="#101010" stroke="black"/>
<rect x="-0.224582" y="0.670576" width="92.9375" height="634.08" transform="matrix(-0.445848 -0.895109 0.895011 -0.446043 394.706 852.405)" fill="#101010" stroke="black"/>
<path d="M833.713 235.001C874.433 235.001 907.443 201.981 907.443 161.25C907.443 120.519 874.433 87.5 833.713 87.5C792.992 87.5 759.982 120.519 759.982 161.25C759.982 201.981 792.992 235.001 833.713 235.001Z" fill="#101010" stroke="black"/>
<path d="M420.025 260.702C460.745 260.702 493.755 227.683 493.755 186.952C493.755 146.221 460.745 113.202 420.025 113.202C379.305 113.202 346.295 146.221 346.295 186.952C346.295 227.683 379.305 260.702 420.025 260.702Z" fill="#101010" stroke="black"/>
<path d="M150.23 566.554C190.95 566.554 223.96 533.535 223.96 492.804C223.96 452.073 190.95 419.054 150.23 419.054C109.51 419.054 76.5 452.073 76.5 492.804C76.5 533.535 109.51 566.554 150.23 566.554Z" fill="#101010" stroke="black"/>
</svg>
