<svg width="1503" height="1331" viewBox="0 0 1503 1331" fill="none" xmlns="http://www.w3.org/2000/svg">
<path d="M538.497 635.5L538.125 635.502L538.02 635.859L453.52 924.359L453.498 924.436L453.5 924.515L464 1269.52L464.024 1270.29L464.719 1269.95L909.515 1053.05L1401.3 1261.46L1401.96 1261.74L1402 1261.03L1420 970.031L1420 969.945L1419.98 969.862L1322.98 630.862L1322.88 630.498L1322.5 630.5L538.497 635.5Z" fill="white" stroke="black"/>
<path d="M722.478 248.353L722.196 247.435L721.606 248.193L640.365 352.36L409.236 228.559L408.63 228.235L408.508 228.911L363.077 480.53L230.463 490.501L229.578 490.568L230.093 491.29L346.593 654.79L346.84 655.137L347.222 654.948L566.222 546.448L781.222 439.948L781.607 439.757L781.476 439.348L770.478 404.853L770.476 404.848L722.478 248.353Z" fill="white" stroke="black"/>
<path d="M359.668 1155.18L359.668 1155.19C352.969 1204 363.015 1245.44 389.841 1279.46C416.679 1313.5 454.541 1330.5 503.358 1330.5C523.466 1330.5 542.148 1326.91 559.396 1319.72C576.645 1312.53 592.45 1301.75 606.812 1287.38L735.541 1158.62H1124.62L1253.35 1287.38C1267.71 1301.75 1283.51 1312.53 1300.76 1319.72C1318.01 1326.91 1336.69 1330.5 1356.8 1330.5C1405.62 1330.5 1443.48 1313.5 1470.32 1279.46C1497.14 1245.44 1507.19 1204 1500.49 1155.19L1500.49 1155.18L1440.35 725.482L1440.35 725.477C1431.74 668.069 1406.15 620.694 1363.57 583.373C1321 546.051 1271 527.388 1213.61 527.388H646.553C589.156 527.388 539.158 546.051 496.585 583.373C454.012 620.694 428.419 668.069 419.81 725.477L419.81 725.482L359.668 1155.18ZM689.512 1043.03H689.304L689.158 1043.18L525.984 1206.4C519.346 1209.24 514.133 1211.37 510.342 1212.8C508.438 1213.51 506.898 1214.04 505.72 1214.4C504.522 1214.76 503.752 1214.91 503.358 1214.91C492.962 1214.91 484.746 1211.84 478.652 1205.75C472.589 1199.68 470.46 1191.51 472.347 1181.13L472.349 1181.12L472.35 1181.11L535.356 739.945L535.356 739.943C539.158 712.37 551.51 689.322 572.423 670.78C593.332 652.242 618.034 642.975 646.553 642.975H1213.61C1242.13 642.975 1266.83 652.242 1287.74 670.78C1308.65 689.322 1321 712.37 1324.8 739.943L1324.8 739.945L1387.81 1181.11L1387.81 1181.12L1387.81 1181.13C1389.7 1191.51 1387.57 1199.68 1381.51 1205.75C1375.43 1211.83 1367.23 1214.9 1356.87 1214.91C1350.23 1213.01 1345.01 1211.35 1341.22 1209.93C1339.32 1209.22 1337.79 1208.57 1336.62 1207.98C1335.44 1207.39 1334.66 1206.88 1334.24 1206.46L1171 1043.18L1170.85 1043.03H1170.65H689.512ZM686.148 986.237V986.737H686.648H772.565H773.065V986.237V886.473H872.801H873.301V885.973V800.033V799.533H872.801H773.065V699.769V699.269H772.565H686.648H686.148V699.769V799.533H586.411H585.911V800.033V885.973V886.473H586.411H686.148V986.237ZM1216.47 986.737C1232.82 986.737 1246.56 981.199 1257.63 970.119C1268.71 959.039 1274.25 945.303 1274.25 928.944C1274.25 912.585 1268.71 898.848 1257.63 887.768C1246.56 876.689 1232.82 871.15 1216.47 871.15C1200.11 871.15 1186.38 876.689 1175.31 887.768C1164.23 898.848 1158.69 912.585 1158.69 928.944C1158.69 945.303 1164.23 959.039 1175.31 970.119C1186.38 981.199 1200.11 986.737 1216.47 986.737ZM1101.91 814.856C1118.27 814.856 1132 809.318 1143.08 798.238C1154.15 787.158 1159.69 773.422 1159.69 757.063C1159.69 740.703 1154.15 726.967 1143.08 715.887C1132 704.808 1118.27 699.269 1101.91 699.269C1085.56 699.269 1071.83 704.808 1060.75 715.887C1049.67 726.967 1044.14 740.703 1044.14 757.063C1044.14 773.422 1049.67 787.158 1060.75 798.238C1071.83 809.318 1085.56 814.856 1101.91 814.856Z" fill="#101010" stroke="black"/>
<rect x="-0.625281" y="-0.33007" width="91.9753" height="366.003" transform="matrix(0.955402 -0.295308 0.29516 0.955448 691.849 160.172)" fill="#101010" stroke="black"/>
<rect x="-0.696404" y="-0.122038" width="91.9814" height="367.782" transform="matrix(0.818473 -0.574544 0.574334 0.818621 108.862 464.081)" fill="#101010" stroke="black"/>
<rect x="-0.679983" y="0.193668" width="91.9922" height="318.966" transform="matrix(0.48627 -0.873809 0.873695 0.486473 362.056 205.016)" fill="#101010" stroke="black"/>
<rect x="0.0748685" y="0.703227" width="91.983" height="241.161" transform="matrix(-0.777908 -0.628379 0.62817 -0.778076 638.334 359.274)" fill="#101010" stroke="black"/>
<rect x="0.408856" y="0.57696" width="91.9739" height="357.442" transform="matrix(-0.985763 -0.168141 0.168052 -0.985778 369.195 489.488)" fill="#101010" stroke="black"/>
<rect x="0.48026" y="-0.519" width="91.998" height="238.022" transform="matrix(0.038729 0.99925 -0.999249 0.0387501 364.922 396.241)" fill="#101010" stroke="black"/>
<rect x="-0.224582" y="0.670576" width="92.9375" height="634.08" transform="matrix(-0.445848 -0.895109 0.895011 -0.446043 318.706 765.405)" fill="#101010" stroke="black"/>
<path d="M757.713 148.001C798.433 148.001 831.443 114.981 831.443 74.2503C831.443 33.5193 798.433 0.5 757.713 0.5C716.992 0.5 683.982 33.5193 683.982 74.2503C683.982 114.981 716.992 148.001 757.713 148.001Z" fill="#101010" stroke="black"/>
<path d="M344.025 173.702C384.745 173.702 417.755 140.683 417.755 99.9522C417.755 59.2212 384.745 26.2019 344.025 26.2019C303.305 26.2019 270.295 59.2212 270.295 99.9522C270.295 140.683 303.305 173.702 344.025 173.702Z" fill="#101010" stroke="black"/>
<path d="M74.2302 479.554C114.95 479.554 147.96 446.535 147.96 405.804C147.96 365.073 114.95 332.054 74.2302 332.054C33.51 332.054 0.5 365.073 0.5 405.804C0.5 446.535 33.51 479.554 74.2302 479.554Z" fill="#101010" stroke="black"/>
</svg>
